<svg width="1116" height="967" xmlns="http://www.w3.org/2000/svg" xmlns:xlink="http://www.w3.org/1999/xlink" overflow="hidden"><defs><clipPath id="clip0"><rect x="1967" y="607" width="1116" height="967"/></clipPath></defs><g clip-path="url(#clip0)" transform="translate(-1967 -607)"><path d="M2651.5 824C2651.5 705.535 2747.53 609.5 2866 609.5 2984.46 609.5 3080.5 705.535 3080.5 824 3080.5 942.465 2984.46 1038.5 2866 1038.5 2747.53 1038.5 2651.5 942.465 2651.5 824Z" stroke="#7A6262" stroke-width="4.58333" stroke-miterlimit="8" fill="#AF7676" fill-rule="evenodd"/><path d="M2679.5 819.5C2679.5 721.746 2763.22 642.5 2866.5 642.5 2969.78 642.5 3053.5 721.746 3053.5 819.5 3053.5 917.254 2969.78 996.5 2866.5 996.5 2763.22 996.5 2679.5 917.254 2679.5 819.5Z" stroke="#ABAB50" stroke-width="4.58333" stroke-miterlimit="8" fill="#E5E05F" fill-rule="evenodd"/><path d="M1969.5 829C1969.5 710.535 2065.53 614.5 2184 614.5 2302.46 614.5 2398.5 710.535 2398.5 829 2398.5 947.465 2302.46 1043.5 2184 1043.5 2065.53 1043.5 1969.5 947.465 1969.5 829Z" stroke="#7A6262" stroke-width="4.58333" stroke-miterlimit="8" fill="#AF7676" fill-rule="evenodd"/><path d="M1997.5 830.5C1997.5 732.746 2081.22 653.5 2184.5 653.5 2287.78 653.5 2371.5 732.746 2371.5 830.5 2371.5 928.254 2287.78 1007.5 2184.5 1007.5 2081.22 1007.5 1997.5 928.254 1997.5 830.5Z" stroke="#ABAB50" stroke-width="4.58333" stroke-miterlimit="8" fill="#E5E05F" fill-rule="evenodd"/><path d="M2151.5 1196.5C2151.5 989.393 2319.39 821.5 2526.5 821.5 2733.61 821.5 2901.5 989.393 2901.5 1196.5 2901.5 1403.61 2733.61 1571.5 2526.5 1571.5 2319.39 1571.5 2151.5 1403.61 2151.5 1196.5Z" stroke="#7A6262" stroke-width="4.58333" stroke-miterlimit="8" fill="#AF7676" fill-rule="evenodd"/><path d="M2311.5 1275.5C2311.5 1177.75 2407.53 1098.5 2526 1098.5 2644.46 1098.5 2740.5 1177.75 2740.5 1275.5 2740.5 1373.25 2644.46 1452.5 2526 1452.5 2407.53 1452.5 2311.5 1373.25 2311.5 1275.5Z" stroke="#ABAB50" stroke-width="4.58333" stroke-miterlimit="8" fill="#E5E05F" fill-rule="evenodd"/><path d="M2310.5 1096C2310.5 1065.35 2336.92 1040.5 2369.5 1040.5 2402.08 1040.5 2428.5 1065.35 2428.5 1096 2428.5 1126.65 2402.08 1151.5 2369.5 1151.5 2336.92 1151.5 2310.5 1126.65 2310.5 1096Z" stroke="#000000" stroke-width="4.58333" stroke-miterlimit="8" fill-rule="evenodd"/><path d="M2613.5 1096C2613.5 1065.35 2639.92 1040.5 2672.5 1040.5 2705.08 1040.5 2731.5 1065.35 2731.5 1096 2731.5 1126.65 2705.08 1151.5 2672.5 1151.5 2639.92 1151.5 2613.5 1126.65 2613.5 1096Z" stroke="#000000" stroke-width="4.58333" stroke-miterlimit="8" fill-rule="evenodd"/><path d="M2467.5 1167.5C2467.5 1136.57 2493.92 1111.5 2526.5 1111.5 2559.08 1111.5 2585.5 1136.57 2585.5 1167.5 2585.5 1198.43 2559.08 1223.5 2526.5 1223.5 2493.92 1223.5 2467.5 1198.43 2467.5 1167.5Z" stroke="#000000" stroke-width="4.58333" stroke-miterlimit="8" fill-rule="evenodd"/><path d="M2471.5 1333.5C2471.5 1279.93 2496.12 1236.5 2526.5 1236.5 2556.88 1236.5 2581.5 1279.93 2581.5 1333.5 2581.5 1387.07 2556.88 1430.5 2526.5 1430.5 2496.12 1430.5 2471.5 1387.07 2471.5 1333.5Z" stroke="#FF0000" stroke-width="4.58333" stroke-miterlimit="8" fill="#FF0000" fill-rule="evenodd"/></g></svg>